<svg xmlns="http://www.w3.org/2000/svg" viewBox="0 0 120 36">
  <!-- Terminal-style prompt dot -->
  <circle cx="8" cy="18" r="5" fill="currentColor" opacity="0.9"/>
  <!-- Stylized "LL" ligature -->
  <path d="M18 6h4v18h10v4H18V6zm18 0h4v18h10v4H36V6z" fill="currentColor"/>
  <!-- "ab" from "lab" merged -->
  <path d="M62 10c-2.5 0-4.6 1-6 2.6V6h-4v22h4v-1.6c1.4 1.6 3.5 2.6 6 2.6 4.4 0 8-3.8 8-8.5S66.4 10 62 10zm-.5 13c-2.5 0-4.5-2-4.5-4.5s2-4.5 4.5-4.5 4.5 2 4.5 4.5-2 4.5-4.5 4.5zm22.5-13c-2.5 0-4.6 1-6 2.6V6h-4v22h4v-1.6c1.4 1.6 3.5 2.6 6 2.6 4.4 0 8-3.8 8-8.5S88.4 10 84 10zm-.5 13c-2.5 0-4.5-2-4.5-4.5s2-4.5 4.5-4.5 4.5 2 4.5 4.5-2 4.5-4.5 4.5zM100 10h4l4.5 11.5L113 10h4l-6.5 16c-1.1 2.7-3 4-5.5 4h-2v-4h1.5c1.2 0 2-.5 2.5-1.6l.3-.7L100 10z" fill="currentColor"/>
</svg>
